<svg width="192" height="192" viewBox="0 0 192 192" fill="none" xmlns="http://www.w3.org/2000/svg">
<rect width="192" height="192" fill="#1E1E1E"/>
<rect width="192" height="192" fill="#D9D9D9"/>
<path d="M57.4 54.6C64.36 54.6 70.36 56.04 75.4 58.92C80.44 61.72 84.64 65.88 88 71.4L79.96 77.64C77 72.52 73.64 68.92 69.88 66.84C66.2 64.68 61.72 63.6 56.44 63.6C52.2 63.6 48.68 64.2 45.88 65.4C43.16 66.6 41.16 68.2 39.88 70.2C38.6 72.12 37.96 74.32 37.96 76.8C37.96 79.6 38.84 82.08 40.6 84.24C42.36 86.32 45.88 87.96 51.16 89.16L68.32 93C75.92 94.68 81.2 97.24 84.16 100.68C87.2 104.04 88.72 108.24 88.72 113.28C88.72 117.76 87.44 121.76 84.88 125.28C82.4 128.72 78.88 131.4 74.32 133.32C69.76 135.24 64.4 136.2 58.24 136.2C52.48 136.2 47.4 135.44 43 133.92C38.68 132.32 34.96 130.2 31.84 127.56C28.72 124.92 26.16 121.96 24.16 118.68L32.56 111.84C34.08 114.88 36.04 117.56 38.44 119.88C40.84 122.2 43.72 124 47.08 125.28C50.52 126.56 54.44 127.2 58.84 127.2C62.92 127.2 66.44 126.72 69.4 125.76C72.44 124.72 74.76 123.24 76.36 121.32C77.96 119.32 78.76 116.92 78.76 114.12C78.76 111.56 77.92 109.28 76.24 107.28C74.56 105.2 71.4 103.64 66.76 102.6L48.16 98.4C43.28 97.28 39.32 95.76 36.28 93.84C33.32 91.84 31.16 89.52 29.8 86.88C28.52 84.16 27.88 81.24 27.88 78.12C27.88 73.88 29.04 70 31.36 66.48C33.76 62.88 37.16 60 41.56 57.84C46.04 55.68 51.32 54.6 57.4 54.6ZM136.795 55.8C142.155 55.8 146.795 56.8 150.715 58.8C154.715 60.72 157.835 63.48 160.075 67.08C162.315 70.68 163.435 74.96 163.435 79.92C163.435 84.88 162.315 89.16 160.075 92.76C157.835 96.36 154.715 99.16 150.715 101.16C146.795 103.08 142.155 104.04 136.795 104.04H118.435V135H108.835V55.8H136.795ZM135.355 95.04C141.595 95.04 146.155 93.76 149.035 91.2C151.915 88.56 153.355 84.8 153.355 79.92C153.355 74.96 151.915 71.2 149.035 68.64C146.155 66.08 141.595 64.8 135.355 64.8H118.435V95.04H135.355Z" fill="#BF0000"/>
</svg>
